<?xml version="1.0" standalone="no"?>
<!DOCTYPE svg PUBLIC "-//W3C//DTD SVG 20010904//EN"
 "http://www.w3.org/TR/2001/REC-SVG-20010904/DTD/svg10.dtd">
<svg version="1.0" xmlns="http://www.w3.org/2000/svg"
 width="1260.000000pt" height="662.000000pt" viewBox="0 0 1260.000000 662.000000"
 preserveAspectRatio="xMidYMid meet">

<g transform="translate(0.000000,662.000000) scale(0.100000,-0.100000)"
fill="#000000" stroke="none">
<path d="M12355 4051 c-3 -5 -1 -12 5 -16 6 -4 6 -13 1 -23 -5 -9 -17 -44 -27
-77 -18 -63 -39 -118 -54 -147 -6 -10 -10 -25 -10 -33 0 -8 -5 -15 -11 -15 -8
0 -7 -5 2 -16 11 -14 13 -14 21 0 5 9 8 22 7 28 -2 18 12 58 20 58 8 0 28 46
37 85 4 17 10 35 14 40 5 6 14 30 21 55 7 25 20 50 29 57 13 10 10 12 -17 13
-17 0 -34 -4 -38 -9z"/>
<path d="M11340 3850 c-14 -4 -41 -8 -61 -9 -19 -1 -44 -8 -55 -16 -17 -13
-14 -14 39 -15 56 0 57 -1 57 -28 0 -15 5 -33 12 -40 9 -9 9 -12 0 -12 -7 0
-12 -15 -12 -37 0 -59 -52 -263 -67 -263 -7 0 -13 -5 -13 -10 0 -6 6 -9 13 -8
14 3 13 -20 -4 -82 -15 -54 -29 -70 -63 -70 -26 0 -38 -19 -13 -21 24 -2 112
3 115 6 2 2 -2 12 -9 23 -10 16 -8 35 11 103 12 46 26 109 31 139 4 30 11 66
14 80 8 31 34 125 45 164 6 17 5 36 0 47 -14 25 -12 39 4 39 8 0 18 5 21 10 7
12 -29 12 -65 0z"/>
<path d="M11077 3799 c7 -7 15 -10 18 -7 3 3 -2 9 -12 12 -14 6 -15 5 -6 -5z"/>
<path d="M11004 3793 c-16 -3 -20 -9 -17 -24 5 -18 -3 -47 -33 -116 -8 -17
-14 -50 -14 -72 l0 -41 25 16 c14 9 25 22 25 29 0 7 5 15 12 17 8 3 11 21 9
51 -1 29 2 47 8 47 6 0 11 -10 11 -22 0 -39 12 -10 15 36 2 25 6 54 10 65 7
22 -1 24 -51 14z"/>
<path d="M11595 3700 c-3 -5 -1 -18 4 -27 9 -16 10 -14 11 10 0 28 -5 34 -15
17z"/>
<path d="M12041 3683 c-9 -7 -39 -13 -68 -13 -28 0 -55 -5 -58 -10 -7 -12 94
-6 176 10 25 5 71 6 102 3 45 -5 57 -9 57 -23 0 -10 7 -31 15 -46 10 -20 13
-43 9 -71 -7 -46 5 -56 33 -27 12 11 13 18 4 27 -6 6 -11 20 -11 31 0 11 -5
44 -12 73 l-12 52 -110 3 c-75 2 -114 -1 -125 -9z"/>
<path d="M10456 3680 c15 -15 56 -17 61 -2 3 8 -7 12 -33 12 -25 0 -35 -3 -28
-10z"/>
<path d="M10332 3654 c-23 -16 -29 -34 -12 -34 6 0 10 6 10 13 0 8 20 18 48
24 45 10 46 10 12 12 -20 0 -46 -6 -58 -15z"/>
<path d="M11541 3648 c-1 -10 6 -18 14 -18 8 0 22 -8 32 -19 10 -10 29 -21 43
-24 14 -4 35 -15 45 -25 20 -19 20 -18 42 7 26 30 15 49 -17 29 -18 -10 -24
-10 -27 0 -3 6 -13 12 -23 12 -10 0 -21 4 -24 9 -3 5 -21 12 -40 15 -19 4 -37
12 -39 19 -3 7 -6 4 -6 -5z"/>
<path d="M10440 3610 c0 -5 -18 -10 -40 -10 -30 0 -40 -4 -40 -16 0 -14 7 -15
40 -10 38 6 40 5 40 -20 0 -21 4 -25 23 -22 29 4 37 56 11 75 -21 16 -34 17
-34 3z"/>
<path d="M12166 3611 c-4 -7 -5 -15 -2 -18 9 -9 19 4 14 18 -4 11 -6 11 -12 0z"/>
<path d="M10161 3574 c0 -11 3 -14 6 -6 3 7 2 16 -1 19 -3 4 -6 -2 -5 -13z"/>
<path d="M12165 3540 c3 -5 8 -10 11 -10 2 0 4 5 4 10 0 6 -5 10 -11 10 -5 0
-7 -4 -4 -10z"/>
<path d="M9740 3514 c0 -28 15 -25 23 6 3 13 0 20 -9 20 -8 0 -14 -10 -14 -26z"/>
<path d="M10410 3520 c0 -5 5 -10 10 -10 6 0 10 5 10 10 0 6 -4 10 -10 10 -5
0 -10 -4 -10 -10z"/>
<path d="M10135 3500 c-3 -5 -1 -10 4 -10 6 0 11 5 11 10 0 6 -2 10 -4 10 -3
0 -8 -4 -11 -10z"/>
<path d="M12380 3490 c-13 -8 -12 -10 3 -10 9 0 17 5 17 10 0 12 -1 12 -20 0z"/>
<path d="M9369 3464 c-17 -20 -8 -25 20 -10 19 10 20 14 8 19 -9 3 -21 -1 -28
-9z"/>
<path d="M10620 3418 c0 -29 -7 -87 -16 -128 -13 -63 -14 -83 -3 -128 14 -58
29 -53 29 11 0 57 31 107 66 107 16 0 16 1 -2 15 -10 8 -27 15 -37 15 -16 0
-18 8 -15 76 2 55 -1 78 -9 81 -9 3 -13 -10 -13 -49z"/>
<path d="M10932 3445 c0 -16 2 -22 5 -12 2 9 2 23 0 30 -3 6 -5 -1 -5 -18z"/>
<path d="M10070 3448 c0 -9 5 -20 10 -23 13 -8 13 5 0 25 -8 13 -10 13 -10 -2z"/>
<path d="M12320 3447 c0 -7 12 -23 26 -37 15 -13 21 -26 15 -28 -20 -7 -11
-22 13 -22 31 0 42 16 20 28 -14 8 -14 12 -3 30 16 26 14 28 -33 35 -26 4 -38
2 -38 -6z"/>
<path d="M12321 3375 c1 -40 1 -40 11 -12 7 21 7 32 -1 40 -8 8 -11 0 -10 -28z"/>
<path d="M10890 3390 c0 -5 4 -10 9 -10 6 0 13 5 16 10 3 6 -1 10 -9 10 -9 0
-16 -4 -16 -10z"/>
<path d="M8915 3380 c3 -5 0 -8 -7 -5 -7 3 -26 0 -43 -5 l-30 -10 28 4 c16 2
30 -2 32 -8 11 -40 15 -45 30 -40 8 3 15 17 15 29 0 16 8 26 28 33 26 10 25
10 -16 11 -26 1 -41 -3 -37 -9z"/>
<path d="M10175 3348 c-5 -18 -2 -32 7 -42 13 -12 17 -10 33 16 13 23 14 29 4
26 -8 -3 -19 2 -26 11 -10 14 -12 12 -18 -11z"/>
<path d="M9291 3321 c-1 -10 -10 -12 -31 -7 -37 7 -37 2 0 -40 l30 -34 6 24
c3 13 4 35 1 47 -2 13 -5 18 -6 10z"/>
<path d="M8540 3311 c-15 -4 -20 -10 -13 -14 6 -4 26 0 44 8 36 15 16 19 -31
6z"/>
<path d="M9762 3265 c12 -14 25 -25 30 -25 5 0 1 11 -8 25 -9 14 -23 25 -30
25 -10 0 -7 -8 8 -25z"/>
<path d="M10816 3272 c-6 -10 128 -31 204 -31 101 1 110 13 15 20 -49 4 -118
10 -151 13 -34 4 -64 3 -68 -2z"/>
<path d="M12361 3254 c0 -11 3 -14 6 -6 3 7 2 16 -1 19 -3 4 -6 -2 -5 -13z"/>
<path d="M10044 3245 c-4 -8 -12 -15 -20 -15 -8 0 -14 -4 -14 -10 0 -5 -11
-10 -24 -10 -13 0 -26 -5 -28 -12 -2 -6 -30 -13 -61 -16 -51 -4 -57 -7 -57
-27 0 -18 4 -22 20 -18 11 3 23 9 26 14 3 5 17 9 32 9 51 0 117 31 140 66 18
28 19 34 7 34 -9 0 -18 -7 -21 -15z"/>
<path d="M8930 3230 c0 -11 6 -20 14 -20 24 0 26 15 5 28 -16 11 -19 9 -19 -8z"/>
<path d="M9325 3219 c-11 -4 -14 -8 -7 -8 14 -1 30 -13 71 -53 16 -16 31 -28
35 -28 4 0 18 -11 32 -25 25 -25 44 -26 44 -1 0 8 -13 19 -30 26 -16 7 -30 16
-30 21 0 5 -7 9 -15 9 -8 0 -15 4 -15 10 0 5 -11 12 -24 16 -13 3 -28 14 -32
24 -7 13 -14 15 -29 9z"/>
<path d="M11320 3212 c0 -4 28 -37 63 -72 34 -36 73 -80 86 -98 18 -25 26 -30
36 -22 11 9 -6 31 -80 106 -92 91 -105 103 -105 86z"/>
<path d="M12470 3210 c0 -5 5 -10 10 -10 6 0 10 5 10 10 0 6 -4 10 -10 10 -5
0 -10 -4 -10 -10z"/>
<path d="M12423 3199 c-11 -11 -6 -56 7 -64 5 -3 12 5 16 17 4 13 11 26 17 29
12 8 0 29 -17 29 -6 0 -17 -5 -23 -11z"/>
<path d="M12488 3183 c6 -2 18 -2 25 0 6 3 1 5 -13 5 -14 0 -19 -2 -12 -5z"/>
<path d="M8965 3170 c3 -5 8 -10 11 -10 2 0 4 5 4 10 0 6 -5 10 -11 10 -5 0
-7 -4 -4 -10z"/>
<path d="M12322 3130 c-1 -39 2 -49 8 -34 4 11 5 36 0 55 -7 31 -8 29 -8 -21z"/>
<path d="M9020 3156 c0 -2 7 -6 15 -10 8 -3 15 -1 15 4 0 6 -7 10 -15 10 -8 0
-15 -2 -15 -4z"/>
<path d="M7980 3133 c0 -12 5 -25 11 -28 17 -11 18 -2 4 25 -14 24 -14 24 -15
3z"/>
<path d="M9985 3120 c-3 -5 -1 -10 4 -10 6 0 11 5 11 10 0 6 -2 10 -4 10 -3 0
-8 -4 -11 -10z"/>
<path d="M12392 3110 c0 -14 2 -19 5 -12 2 6 2 18 0 25 -3 6 -5 1 -5 -13z"/>
<path d="M10021 3081 c-8 -6 -11 -16 -7 -27 6 -16 8 -16 23 -1 20 19 6 41 -16
28z"/>
<path d="M10610 3050 l0 -40 -43 0 c-29 0 -50 -6 -64 -19 -12 -11 -24 -17 -27
-14 -3 4 -16 1 -29 -5 -12 -6 -33 -13 -47 -16 -14 -3 0 -3 30 0 54 5 123 23
136 37 4 4 18 7 31 7 21 0 23 5 23 45 0 25 -2 45 -5 45 -3 0 -5 -18 -5 -40z"/>
<path d="M12065 3069 c-6 -8 38 -30 86 -42 14 -4 42 -19 62 -34 20 -16 57 -41
83 -57 51 -32 90 -100 79 -136 -7 -24 10 -27 31 -6 17 17 18 36 3 36 -8 0 -10
14 -6 40 3 22 2 40 -3 40 -9 0 -23 39 -21 58 1 6 -7 12 -19 12 -11 0 -19 -6
-17 -12 4 -22 -48 -11 -77 15 -43 40 -191 103 -201 86z"/>
<path d="M11903 3063 c9 -2 25 -2 35 0 9 3 1 5 -18 5 -19 0 -27 -2 -17 -5z"/>
<path d="M8064 3034 c-21 -22 -21 -44 1 -44 8 0 20 -7 29 -15 13 -13 15 -13
21 5 4 12 15 20 29 20 12 0 31 7 42 15 10 8 15 15 9 14 -24 -3 -35 2 -35 16 0
8 -9 15 -20 15 -13 0 -20 -7 -20 -20 0 -25 -18 -26 -28 -2 -6 16 -9 15 -28 -4z"/>
<path d="M8300 3057 c0 -2 9 -14 20 -27 22 -25 26 -20 10 11 -9 16 -30 27 -30
16z"/>
<path d="M12330 3021 c0 -11 5 -23 10 -26 6 -4 10 5 10 19 0 14 -4 26 -10 26
-5 0 -10 -9 -10 -19z"/>
<path d="M12425 3029 c-11 -4 -14 -8 -7 -8 6 -1 12 -13 12 -28 0 -34 20 -70
20 -38 0 15 3 17 9 7 7 -11 9 -11 14 2 3 8 0 21 -7 29 -8 7 -15 20 -17 29 -3
11 -10 13 -24 7z"/>
<path d="M7100 3023 c0 -3 11 -21 25 -39 14 -18 25 -37 25 -43 0 -6 5 -11 10
-11 6 0 10 -7 8 -16 -2 -10 7 -20 20 -25 29 -11 28 -10 -28 74 -40 60 -60 80
-60 60z"/>
<path d="M7993 2998 c-6 -7 -18 -37 -27 -65 -10 -29 -22 -53 -27 -53 -5 0 -9
-8 -9 -18 0 -10 -6 -24 -12 -30 -10 -10 -10 -17 0 -32 20 -32 15 -70 -8 -70
-11 0 -20 5 -20 12 0 24 -28 -17 -39 -56 l-10 -38 35 6 c27 6 34 4 34 -9 0
-21 43 -19 68 3 24 20 39 62 22 62 -6 0 -10 6 -7 13 2 6 10 12 17 12 8 0 18
15 22 34 7 26 13 32 29 28 10 -3 22 -1 25 4 3 5 -4 9 -15 9 -12 0 -21 7 -21
15 0 8 -7 15 -15 15 -18 0 -20 31 -4 47 15 15 20 94 7 111 -6 6 -16 12 -23 12
-7 0 -17 -6 -22 -12z"/>
<path d="M8235 3000 c-16 -4 -26 -8 -21 -9 5 0 0 -9 -10 -19 -10 -9 -27 -31
-36 -47 -9 -16 -27 -33 -40 -36 -21 -6 -21 -7 -2 -8 15 -1 20 -7 20 -23 -1
-23 5 -25 37 -13 14 6 21 0 30 -24 9 -26 16 -31 34 -26 24 6 36 -5 24 -23 -6
-9 -15 -9 -39 4 -18 8 -32 20 -32 25 0 5 -9 9 -20 9 -11 0 -19 -6 -17 -12 1
-7 -7 -14 -18 -14 -11 -1 -25 -2 -31 -3 -7 -1 -14 -11 -18 -23 -5 -19 -8 -21
-16 -8 -10 15 -12 5 -14 -71 -1 -14 -8 -34 -16 -44 -11 -14 -12 -19 -2 -22 6
-3 12 -11 12 -19 0 -14 12 -18 38 -15 6 1 12 -7 12 -18 0 -30 65 -41 86 -15
15 18 15 18 11 -3 -3 -13 -2 -23 1 -23 4 0 17 -3 30 -6 17 -5 22 -2 22 11 0
14 6 16 33 11 17 -4 34 -11 35 -16 5 -15 41 -12 58 5 8 8 13 16 12 17 -7 8 41
58 55 58 15 0 47 36 47 52 0 5 -7 8 -16 8 -10 0 -14 -6 -11 -15 4 -8 2 -17 -2
-20 -5 -2 -11 5 -14 18 -2 12 -8 30 -12 40 -5 12 -2 17 10 17 9 0 25 5 35 10
16 9 18 15 9 37 -7 20 -6 29 3 35 10 7 9 11 -4 22 -10 7 -18 19 -18 25 0 7
-10 11 -22 9 -15 -2 -34 8 -56 31 -33 33 -34 33 -50 13 -16 -19 -17 -18 -39
29 -13 27 -30 49 -38 49 -18 0 -18 5 -5 31 11 20 11 21 -35 9z m-5 -76 c0 -7
8 -18 18 -23 16 -10 15 -10 -3 -10 -29 0 -59 25 -52 43 7 18 37 10 37 -10z
m157 -105 c14 -14 6 -39 -12 -39 -18 0 -28 17 -21 35 6 18 18 19 33 4z m-251
-77 c-3 -5 4 -16 15 -25 10 -9 19 -20 19 -24 0 -11 -48 -32 -55 -25 -7 8 -6
67 2 75 9 10 25 9 19 -1z m104 -76 c0 -3 -4 -8 -10 -11 -5 -3 -10 -1 -10 4 0
6 5 11 10 11 6 0 10 -2 10 -4z"/>
<path d="M11471 2974 c0 -11 3 -14 6 -6 3 7 2 16 -1 19 -3 4 -6 -2 -5 -13z"/>
<path d="M6677 2880 c3 -47 7 -87 9 -89 8 -9 11 6 17 72 3 51 2 67 -8 67 -8 0
-16 8 -19 18 -3 9 -2 -21 1 -68z"/>
<path d="M9590 2945 c0 -8 5 -15 10 -15 6 0 10 7 10 15 0 8 -4 15 -10 15 -5 0
-10 -7 -10 -15z"/>
<path d="M12580 2951 c0 -6 5 -13 10 -16 6 -3 10 1 10 9 0 9 -4 16 -10 16 -5
0 -10 -4 -10 -9z"/>
<path d="M8345 2940 c-4 -6 3 -10 14 -10 25 0 27 6 6 13 -8 4 -17 2 -20 -3z"/>
<path d="M11452 2925 c-7 -16 -17 -38 -22 -47 -6 -10 -10 -23 -10 -30 0 -18
29 25 30 44 0 9 5 18 11 20 6 2 9 13 7 23 -4 17 -7 15 -16 -10z"/>
<path d="M9911 2924 c0 -11 3 -14 6 -6 3 7 2 16 -1 19 -3 4 -6 -2 -5 -13z"/>
<path d="M10273 2917 c-18 -5 -33 -14 -33 -18 0 -4 12 -4 28 1 15 5 34 10 42
12 7 3 10 7 5 10 -6 2 -25 0 -42 -5z"/>
<path d="M10620 2867 c0 -66 16 -117 38 -117 15 0 15 2 -3 36 -8 16 -15 55
-15 87 0 31 -4 57 -10 57 -6 0 -10 -28 -10 -63z"/>
<path d="M9571 2890 c-7 -19 -17 -44 -22 -55 -15 -34 -27 -137 -19 -164 7 -22
8 -18 9 21 1 26 6 50 11 53 6 3 10 16 10 29 0 12 7 43 16 69 19 57 15 99 -5
47z"/>
<path d="M9773 2899 c14 -8 22 -8 30 0 8 8 3 11 -18 11 -26 -1 -28 -2 -12 -11z"/>
<path d="M7868 2864 c-10 -19 -18 -45 -18 -57 0 -13 -4 -27 -9 -32 -5 -6 -12
-30 -16 -54 -7 -41 -6 -43 9 -29 8 9 18 36 22 60 4 23 10 48 14 53 8 10 24 95
18 95 -1 0 -11 -16 -20 -36z"/>
<path d="M7608 2883 c7 -3 16 -2 19 1 4 3 -2 6 -13 5 -11 0 -14 -3 -6 -6z"/>
<path d="M10096 2877 c-18 -13 -18 -14 -2 -20 25 -10 66 3 66 19 0 18 -40 18
-64 1z"/>
<path d="M7660 2870 c0 -5 5 -10 11 -10 5 0 7 5 4 10 -3 6 -8 10 -11 10 -2 0
-4 -4 -4 -10z"/>
<path d="M7723 2853 c9 -2 23 -2 30 0 6 3 -1 5 -18 5 -16 0 -22 -2 -12 -5z"/>
<path d="M9380 2810 c0 -5 5 -10 11 -10 5 0 7 5 4 10 -3 6 -8 10 -11 10 -2 0
-4 -4 -4 -10z"/>
<path d="M11505 2810 c3 -5 8 -10 11 -10 2 0 4 5 4 10 0 6 -5 10 -11 10 -5 0
-7 -4 -4 -10z"/>
<path d="M7355 2732 c22 -22 42 -39 44 -36 6 6 -40 54 -64 66 -11 6 -2 -8 20
-30z"/>
<path d="M6637 2730 c-12 -12 -17 -28 -14 -47 l4 -28 2 28 c0 15 6 27 12 27
15 0 39 26 32 34 -9 9 -16 7 -36 -14z"/>
<path d="M8540 2741 c0 -5 5 -13 10 -16 6 -3 10 -2 10 4 0 5 -4 13 -10 16 -5
3 -10 2 -10 -4z"/>
<path d="M10737 2685 c10 -13 26 -27 36 -30 9 -4 17 -15 17 -26 0 -14 7 -19
29 -19 16 0 34 -6 40 -14 15 -18 49 -27 57 -15 3 5 -2 9 -10 9 -9 0 -16 5 -16
10 0 6 -5 10 -11 10 -9 0 -77 46 -89 61 -3 4 -15 9 -27 13 -13 4 -23 12 -23
17 0 5 -5 9 -10 9 -6 0 -3 -11 7 -25z"/>
<path d="M11374 2695 c-10 -8 -26 -15 -35 -15 -9 0 -21 -11 -27 -25 -13 -28
-16 -52 -5 -42 3 4 12 2 19 -4 13 -11 17 -7 35 48 7 19 83 -24 104 -60 27 -47
72 -84 108 -90 l31 -4 -23 16 c-42 29 -140 129 -156 161 -18 34 -23 36 -51 15z"/>
<path d="M8505 2690 c-3 -5 -1 -10 4 -10 6 0 11 5 11 10 0 6 -2 10 -4 10 -3 0
-8 -4 -11 -10z"/>
<path d="M7807 2663 c-4 -3 -7 -13 -7 -21 0 -12 3 -12 15 -2 8 7 15 16 15 21
0 11 -14 12 -23 2z"/>
<path d="M12086 2635 c-11 -8 -16 -18 -13 -22 9 -9 58 18 51 29 -7 11 -16 10
-38 -7z"/>
<path d="M7888 2603 c7 -3 16 -2 19 1 4 3 -2 6 -13 5 -11 0 -14 -3 -6 -6z"/>
<path d="M11330 2586 c0 -2 9 -6 20 -9 11 -3 20 -1 20 4 0 5 -9 9 -20 9 -11 0
-20 -2 -20 -4z"/>
<path d="M6938 2573 c7 -3 16 -2 19 1 4 3 -2 6 -13 5 -11 0 -14 -3 -6 -6z"/>
<path d="M11190 2570 c0 -5 14 -19 30 -32 18 -13 34 -37 40 -59 6 -20 21 -48
35 -61 14 -12 25 -29 25 -35 0 -7 20 -50 44 -96 48 -92 63 -141 47 -151 -10
-6 4 -53 19 -66 3 -3 13 -21 22 -40 11 -23 24 -36 37 -37 20 -2 19 1 -9 42
-25 36 -30 54 -30 102 0 32 -6 70 -14 84 -7 14 -16 37 -20 52 -3 15 -11 27
-16 27 -6 0 -10 7 -10 15 0 9 -8 24 -17 35 -29 31 -103 183 -103 212 0 14 -8
18 -40 18 -22 0 -40 -4 -40 -10z"/>
<path d="M11877 2532 c-27 -15 -44 -28 -39 -30 16 -5 92 32 92 45 0 16 5 17
-53 -15z"/>
<path d="M8901 2534 c0 -11 3 -14 6 -6 3 7 2 16 -1 19 -3 4 -6 -2 -5 -13z"/>
<path d="M8411 2521 c-10 -18 -6 -31 10 -31 3 0 9 11 11 25 6 29 -7 33 -21 6z"/>
<path d="M10591 2481 c-1 -32 2 -42 10 -34 7 7 7 21 1 44 l-10 34 -1 -44z"/>
<path d="M8280 2497 c0 -8 3 -17 8 -21 7 -8 8 -12 11 -48 2 -19 4 -17 15 12
14 40 13 46 -15 60 -14 8 -19 7 -19 -3z"/>
<path d="M8882 2460 c0 -19 2 -27 5 -17 2 9 2 25 0 35 -3 9 -5 1 -5 -18z"/>
<path d="M9512 2465 c0 -16 2 -22 5 -12 2 9 2 23 0 30 -3 6 -5 -1 -5 -18z"/>
<path d="M9709 2444 c-29 -31 -30 -35 -9 -24 13 7 31 19 39 27 15 16 53 11
102 -14 23 -12 34 -12 42 -4 20 20 -23 36 -90 34 -7 -1 -13 3 -13 8 0 21 -39
6 -71 -27z"/>
<path d="M8615 2450 c3 -5 8 -10 11 -10 2 0 4 5 4 10 0 6 -5 10 -11 10 -5 0
-7 -4 -4 -10z"/>
<path d="M11650 2445 c0 -8 3 -15 6 -15 3 0 12 7 20 15 14 13 13 15 -5 15 -12
0 -21 -6 -21 -15z"/>
<path d="M9510 2417 c0 -22 22 -38 36 -26 11 9 11 14 -1 25 -17 18 -35 18 -35
1z"/>
<path d="M8900 2391 c0 -25 6 -27 13 -6 4 8 2 17 -3 20 -6 4 -10 -3 -10 -14z"/>
<path d="M10830 2395 c0 -8 5 -15 10 -15 6 0 10 7 10 15 0 8 -4 15 -10 15 -5
0 -10 -7 -10 -15z"/>
<path d="M7401 2344 c0 -11 3 -14 6 -6 3 7 2 16 -1 19 -3 4 -6 -2 -5 -13z"/>
<path d="M7768 2330 c-4 -14 -8 -36 -7 -50 l0 -25 10 25 c5 13 9 36 7 50 l-3
25 -7 -25z"/>
<path d="M6519 2319 c-19 -19 -19 -22 -5 -38 12 -14 14 -31 9 -84 -3 -37 -10
-67 -14 -67 -5 0 -9 -22 -9 -50 0 -29 5 -50 11 -50 5 0 7 5 4 10 -3 6 -2 10 4
10 5 0 11 17 13 38 2 30 7 38 26 40 24 4 31 22 7 22 -11 0 -15 11 -15 36 0 28
3 35 15 30 19 -7 20 12 1 33 -24 28 -28 69 -9 80 17 10 17 10 1 11 -10 0 -27
-9 -39 -21z"/>
<path d="M10970 2320 c0 -12 -7 -32 -16 -45 -10 -16 -14 -34 -10 -48 4 -12 10
-38 13 -57 8 -55 13 -49 13 18 0 33 4 63 9 67 12 7 12 85 0 85 -5 0 -9 -9 -9
-20z"/>
<path d="M10111 2268 c0 -27 4 -48 9 -48 16 0 24 28 12 43 -5 6 -12 21 -15 32
-2 11 -5 -1 -6 -27z"/>
<path d="M10333 2303 c9 -2 23 -2 30 0 6 3 -1 5 -18 5 -16 0 -22 -2 -12 -5z"/>
<path d="M12563 2238 c-4 -7 -9 -31 -10 -53 -2 -22 -7 -52 -12 -67 -11 -31 -1
-37 19 -13 24 29 34 0 17 -44 -9 -22 -15 -53 -12 -68 2 -15 7 -103 9 -195 4
-160 4 -168 -14 -168 -23 0 -17 -23 13 -55 18 -18 19 -29 11 -135 -11 -143
-10 -499 0 -562 5 -29 4 -58 -2 -78 -7 -19 -8 -40 -2 -54 5 -14 5 -40 -1 -62
-4 -22 -5 -109 -2 -194 15 -322 22 -53 22 848 1 788 -1 912 -13 912 -8 0 -18
-6 -23 -12z"/>
<path d="M7730 2134 c0 -8 5 -12 10 -9 6 4 8 11 5 16 -9 14 -15 11 -15 -7z"/>
<path d="M10097 2113 c-7 -12 -16 -70 -22 -135 -4 -47 -2 -56 10 -52 14 6 29
57 24 85 -1 8 1 31 6 52 7 36 -5 72 -18 50z"/>
<path d="M6573 2055 c0 -27 2 -38 4 -22 2 15 2 37 0 50 -2 12 -4 0 -4 -28z"/>
<path d="M7830 2076 c0 -14 -4 -27 -10 -31 -5 -3 -6 -13 -3 -21 4 -12 11 -5
24 22 17 38 17 54 -2 54 -5 0 -9 -11 -9 -24z"/>
<path d="M8035 2090 c-4 -6 11 -10 37 -9 33 0 38 2 23 9 -28 12 -53 12 -60 0z"/>
<path d="M8230 2090 c-11 -7 -6 -10 20 -10 26 0 31 3 20 10 -8 5 -17 10 -20
10 -3 0 -12 -5 -20 -10z"/>
<path d="M10672 2017 c5 -23 11 -59 15 -79 3 -21 10 -38 15 -38 17 0 19 26 3
56 -8 16 -15 43 -15 60 0 18 -6 34 -13 37 -11 4 -12 -3 -5 -36z"/>
<path d="M11393 2017 c3 -21 2 -37 -4 -37 -5 0 -9 -5 -9 -12 0 -9 3 -9 12 0 7
7 20 12 30 12 10 0 18 5 18 10 0 6 -4 10 -10 10 -5 0 -10 5 -10 11 0 6 -8 18
-17 27 -15 16 -16 14 -10 -21z"/>
<path d="M11915 2040 c-11 -5 -71 -9 -133 -9 -84 -1 -117 -5 -128 -15 -12 -12
-5 -15 49 -18 34 -2 72 0 85 4 13 4 52 8 87 8 35 0 67 5 70 10 3 6 18 10 32
10 33 0 27 5 -12 12 -16 3 -39 2 -50 -2z"/>
<path d="M8640 2031 c0 -6 5 -13 10 -16 6 -3 10 1 10 9 0 9 -4 16 -10 16 -5 0
-10 -4 -10 -9z"/>
<path d="M6490 2005 c0 -24 37 -56 48 -42 17 23 22 46 7 41 -7 -3 -23 -1 -34
6 -17 9 -21 8 -21 -5z"/>
<path d="M10970 1997 c0 -8 -21 -18 -50 -26 -30 -8 -50 -18 -50 -27 0 -16 16
-19 25 -5 3 6 26 13 50 17 34 5 45 11 45 25 0 10 -4 21 -10 24 -5 3 -10 0 -10
-8z"/>
<path d="M11154 2001 c3 -5 15 -7 26 -4 28 7 25 13 -6 13 -14 0 -23 -4 -20 -9z"/>
<path d="M11555 1990 c-3 -5 1 -10 10 -10 9 0 13 5 10 10 -3 6 -8 10 -10 10
-2 0 -7 -4 -10 -10z"/>
<path d="M6878 1938 c3 -24 11 -52 19 -63 13 -18 14 -15 8 30 -8 61 -12 75
-22 75 -5 0 -7 -19 -5 -42z"/>
<path d="M6585 1927 c-4 -10 -5 -21 -1 -24 10 -10 18 4 13 24 -4 17 -4 17 -12
0z"/>
<path d="M8677 1893 c1 -27 2 -65 2 -85 1 -28 5 -38 17 -38 17 0 16 32 -2 138
-9 48 -19 39 -17 -15z"/>
<path d="M10748 1933 c7 -3 16 -2 19 1 4 3 -2 6 -13 5 -11 0 -14 -3 -6 -6z"/>
<path d="M6500 1903 c-15 -17 -25 -23 -28 -15 -10 30 -22 7 -22 -40 l0 -52 27
42 c15 23 33 42 39 42 6 0 12 11 12 25 0 14 -1 25 -2 25 -2 0 -13 -12 -26 -27z"/>
<path d="M9110 1921 c0 -5 7 -11 14 -14 10 -4 13 -1 9 9 -6 15 -23 19 -23 5z"/>
<path d="M10170 1915 c7 -8 19 -15 26 -15 8 0 14 -9 14 -20 0 -11 -4 -20 -10
-20 -5 0 -10 -9 -10 -21 0 -11 -5 -29 -10 -40 -7 -12 -7 -19 -1 -19 5 0 18 18
27 40 12 26 23 39 32 35 7 -3 17 -5 21 -5 5 0 19 -10 33 -22 58 -53 79 -68
103 -74 14 -3 25 -4 25 -1 0 9 -66 73 -105 102 -22 16 -44 35 -50 42 -12 15
-59 33 -87 33 -17 0 -18 -2 -8 -15z"/>
<path d="M11907 1910 c-11 -29 -15 -100 -6 -106 5 -3 13 5 18 18 5 13 21 36
35 52 38 42 35 50 -5 15 l-24 -21 -6 29 c-4 19 -8 23 -12 13z"/>
<path d="M8874 1887 c-6 -7 -13 -17 -15 -22 -12 -29 -56 -85 -66 -85 -9 0 -13
-20 -13 -64 0 -42 -4 -65 -12 -68 -19 -7 -38 2 -38 18 0 8 -7 14 -15 14 -8 0
-15 -8 -15 -17 0 -21 -55 -83 -74 -83 -7 0 -19 -11 -26 -25 -7 -14 -17 -25
-21 -25 -5 0 -19 -11 -33 -25 -14 -14 -30 -25 -36 -25 -5 0 -10 -4 -10 -9 0
-5 -17 -18 -37 -28 -39 -20 -55 -43 -30 -43 7 0 21 8 30 18 8 9 50 42 93 72
42 30 84 62 93 70 43 39 83 70 92 70 5 0 10 -30 11 -67 1 -50 2 -56 5 -23 5
73 12 90 33 90 15 0 20 7 20 25 0 14 7 28 15 31 8 4 15 12 15 20 0 8 -6 11
-15 8 -11 -5 -15 2 -15 26 0 36 24 65 53 65 11 0 22 6 24 13 3 6 -3 12 -12 12
-15 0 -15 1 -1 16 9 8 16 20 16 25 0 5 6 9 14 9 8 0 18 5 21 10 9 15 -38 12
-51 -3z"/>
<path d="M7755 1859 c-4 -18 -12 -42 -18 -54 -5 -11 -14 -28 -19 -38 -4 -9
-11 -41 -14 -69 -3 -29 -10 -61 -16 -72 -7 -13 -6 -21 3 -27 8 -4 17 -5 20 -1
6 6 24 83 53 225 2 6 7 20 11 30 4 10 3 23 -3 29 -7 7 -12 0 -17 -23z"/>
<path d="M11705 1870 c-3 -5 -1 -10 4 -10 6 0 11 5 11 10 0 6 -2 10 -4 10 -3
0 -8 -4 -11 -10z"/>
<path d="M9235 1781 c3 -46 7 -86 10 -89 3 -3 14 4 25 15 10 12 24 23 31 25
14 5 -9 48 -27 48 -11 0 -29 31 -38 65 -3 11 -3 -18 -1 -64z"/>
<path d="M9031 1824 c0 -11 3 -14 6 -6 3 7 2 16 -1 19 -3 4 -6 -2 -5 -13z"/>
<path d="M6474 1795 c-3 -20 -4 -39 0 -42 3 -4 6 2 6 12 0 10 10 29 22 42 l21
23 -21 0 c-16 0 -23 -8 -28 -35z"/>
<path d="M9660 1821 c0 -5 -8 -12 -17 -14 -17 -4 -17 -5 0 -6 13 -1 17 -6 13
-19 -11 -34 -16 -122 -7 -122 5 0 12 30 15 68 4 37 10 75 12 85 3 9 1 17 -5
17 -6 0 -11 -4 -11 -9z"/>
<path d="M11540 1801 c0 -22 -41 -72 -69 -83 -22 -9 -23 -12 -8 -15 10 -3 24
2 30 10 7 9 21 17 31 19 22 3 41 57 26 72 -7 7 -10 5 -10 -3z"/>
<path d="M8972 1787 c-19 -22 7 -67 38 -67 23 1 23 2 8 14 -10 7 -19 23 -21
34 -4 29 -12 35 -25 19z"/>
<path d="M9540 1785 c-13 -16 -8 -18 28 -9 12 4 22 10 22 15 0 15 -37 10 -50
-6z"/>
<path d="M7460 1721 c0 -17 5 -33 10 -36 6 -3 10 -25 10 -49 0 -49 18 -80 39
-67 11 7 11 17 -4 57 -9 27 -21 57 -26 66 -5 10 -9 27 -9 38 0 11 -4 20 -10
20 -5 0 -10 -13 -10 -29z"/>
<path d="M10470 1741 c0 -5 23 -17 50 -27 36 -13 52 -25 56 -41 5 -19 11 -22
33 -17 52 13 56 21 15 34 -21 7 -61 23 -88 36 -54 26 -66 29 -66 15z"/>
<path d="M12390 1742 c0 -5 9 -17 20 -27 16 -14 20 -15 20 -4 0 16 -19 39 -32
39 -4 0 -8 -4 -8 -8z"/>
<path d="M6471 1724 c0 -11 3 -14 6 -6 3 7 2 16 -1 19 -3 4 -6 -2 -5 -13z"/>
<path d="M11870 1717 c0 -8 -6 -27 -14 -43 -20 -41 -25 -120 -7 -116 7 1 19
-3 27 -9 9 -8 14 -8 14 -1 0 6 -5 14 -11 18 -11 6 -7 84 7 141 4 14 2 23 -5
23 -6 0 -11 -6 -11 -13z"/>
<path d="M7130 1701 c0 -5 7 -11 14 -14 10 -4 13 -1 9 9 -6 15 -23 19 -23 5z"/>
<path d="M6480 1685 c0 -8 5 -15 10 -15 6 0 10 7 10 15 0 8 -4 15 -10 15 -5 0
-10 -7 -10 -15z"/>
<path d="M11390 1679 c-30 -5 -77 -9 -105 -9 -66 -1 -85 -8 -78 -26 6 -16 60
-19 65 -3 2 7 36 11 91 11 78 1 87 3 87 19 0 11 -1 18 -2 18 -2 -1 -28 -5 -58
-10z"/>
<path d="M12240 1633 c0 -45 -3 -52 -22 -56 -13 -2 -5 -5 17 -5 22 -1 51 5 65
13 14 8 39 15 55 15 37 0 108 24 113 38 5 16 -30 20 -58 6 -14 -6 -50 -15 -81
-19 l-56 -7 -16 34 -17 33 0 -52z"/>
<path d="M7090 1660 c-13 -8 -12 -10 3 -10 9 0 17 5 17 10 0 12 -1 12 -20 0z"/>
<path d="M8987 1650 c-7 -10 -28 -22 -47 -25 -72 -13 -68 -36 13 -63 45 -15
57 -22 45 -27 -10 -4 -18 -18 -18 -31 0 -13 -4 -24 -10 -24 -5 0 -10 3 -10 8
0 10 -41 35 -47 28 -7 -6 22 -36 35 -36 5 0 15 -7 22 -15 19 -23 52 -17 82 13
24 24 28 38 32 103 3 41 3 64 0 51 -5 -22 -6 -22 -34 8 -33 35 -44 37 -63 10z
m43 -4 c0 -3 -4 -8 -10 -11 -5 -3 -10 -1 -10 4 0 6 5 11 10 11 6 0 10 -2 10
-4z m-28 -68 c-16 -16 -35 3 -26 26 6 16 8 16 22 2 13 -12 14 -18 4 -28z m58
-12 c0 -15 -24 -28 -34 -19 -13 14 -5 33 14 33 11 0 20 -6 20 -14z"/>
<path d="M10815 1660 c-18 -8 -17 -9 8 -9 16 -1 26 3 22 9 -3 6 -7 10 -8 9 -1
0 -11 -4 -22 -9z"/>
<path d="M9137 1631 c2 -13 -3 -31 -12 -41 -23 -26 -11 -60 21 -60 27 0 44 31
44 81 0 26 -3 29 -24 23 -16 -4 -26 -1 -29 8 -2 7 -2 2 0 -11z m20 -68 c-3 -3
-10 -2 -16 2 -7 4 -7 10 2 20 10 11 13 11 15 -2 2 -8 1 -17 -1 -20z"/>
<path d="M11120 1645 c0 -9 5 -15 11 -13 6 2 11 8 11 13 0 5 -5 11 -11 13 -6
2 -11 -4 -11 -13z"/>
<path d="M11524 1647 c-4 -12 42 -114 66 -147 9 -12 10 -6 5 24 -3 21 -10 46
-15 55 -5 9 -14 31 -20 49 -13 33 -27 41 -36 19z"/>
<path d="M6515 1640 c3 -5 8 -10 11 -10 2 0 4 5 4 10 0 6 -5 10 -11 10 -5 0
-7 -4 -4 -10z"/>
<path d="M11020 1638 c0 -4 9 -8 20 -8 11 0 20 4 20 9 0 6 -9 9 -20 8 -11 -1
-20 -5 -20 -9z"/>
<path d="M10090 1623 c0 -6 -3 -20 -7 -30 -7 -17 -6 -17 11 0 14 14 16 21 7
30 -8 8 -11 8 -11 0z"/>
<path d="M11270 1571 c0 -6 4 -13 10 -16 6 -3 7 1 4 9 -7 18 -14 21 -14 7z"/>
<path d="M12171 1544 c0 -11 3 -14 6 -6 3 7 2 16 -1 19 -3 4 -6 -2 -5 -13z"/>
<path d="M7719 1548 c-7 -13 -5 -88 2 -88 5 0 9 20 9 45 0 37 -5 55 -11 43z"/>
<path d="M11340 1541 c0 -5 7 -11 15 -15 8 -3 15 -1 15 5 0 6 7 9 15 5 8 -3
15 -1 15 4 0 6 -13 10 -30 10 -16 0 -30 -4 -30 -9z"/>
<path d="M9197 1521 c-25 -16 -47 -41 -47 -53 0 -12 52 11 76 33 12 11 26 19
32 17 5 -2 9 1 9 6 -3 15 -46 13 -70 -3z"/>
<path d="M11842 1520 c0 -14 2 -19 5 -12 2 6 2 18 0 25 -3 6 -5 1 -5 -13z"/>
<path d="M11440 1516 c0 -8 4 -17 9 -20 5 -4 7 3 4 14 -6 23 -13 26 -13 6z"/>
<path d="M11398 1503 c7 -3 16 -2 19 1 4 3 -2 6 -13 5 -11 0 -14 -3 -6 -6z"/>
<path d="M7346 1483 c-6 -14 -5 -15 5 -6 7 7 10 15 7 18 -3 3 -9 -2 -12 -12z"/>
<path d="M9329 1485 c-8 -7 2 -41 37 -130 13 -33 24 -72 24 -86 0 -17 12 -39
33 -60 19 -19 36 -41 40 -49 4 -10 6 -8 6 6 1 20 -19 67 -85 197 -13 27 -24
57 -24 68 0 10 -4 19 -9 19 -5 0 -11 9 -13 21 -2 11 -6 18 -9 14z"/>
<path d="M11340 1458 c0 -19 2 -20 10 -8 13 19 13 30 0 30 -5 0 -10 -10 -10
-22z"/>
<path d="M11470 1466 c0 -9 5 -16 10 -16 6 0 10 4 10 9 0 6 -4 13 -10 16 -5 3
-10 -1 -10 -9z"/>
<path d="M9900 1460 c0 -6 9 -10 20 -10 11 0 20 -4 20 -10 0 -5 9 -10 20 -10
12 0 22 -9 26 -24 3 -13 16 -28 30 -35 27 -12 32 0 9 23 -8 8 -15 24 -15 35 0
17 -6 21 -29 21 -16 0 -41 4 -55 10 -17 6 -26 6 -26 0z"/>
<path d="M7320 1445 c0 -8 2 -15 4 -15 2 0 6 7 10 15 3 8 1 15 -4 15 -6 0 -10
-7 -10 -15z"/>
<path d="M9050 1435 c7 -8 19 -15 27 -15 13 0 13 3 3 15 -7 8 -19 15 -27 15
-13 0 -13 -3 -3 -15z"/>
<path d="M7301 1400 c0 -20 -6 -41 -12 -47 -7 -7 -7 -13 0 -17 12 -8 25 52 18
81 -3 10 -5 2 -6 -17z"/>
<path d="M10340 1419 c0 -5 5 -7 10 -4 6 3 10 8 10 11 0 2 -4 4 -10 4 -5 0
-10 -5 -10 -11z"/>
<path d="M11440 1423 c0 -7 10 -23 22 -35 21 -21 22 -21 29 -2 12 30 9 52 -3
27 l-11 -22 -18 22 c-10 12 -18 16 -19 10z"/>
<path d="M10693 1403 c9 -2 25 -2 35 0 9 3 1 5 -18 5 -19 0 -27 -2 -17 -5z"/>
<path d="M10775 1396 c11 -9 36 -16 55 -16 46 0 27 16 -30 24 -42 6 -44 6 -25
-8z"/>
<path d="M11361 1394 c0 -11 3 -14 6 -6 3 7 2 16 -1 19 -3 4 -6 -2 -5 -13z"/>
<path d="M8730 1363 l1 -38 14 25 c19 33 19 50 0 50 -11 0 -15 -11 -15 -37z"/>
<path d="M10615 1390 c-3 -5 3 -10 14 -10 12 0 21 5 21 10 0 6 -6 10 -14 10
-8 0 -18 -4 -21 -10z"/>
<path d="M10562 1372 c-7 -5 -10 -16 -6 -26 6 -15 8 -14 25 5 11 12 19 24 19
26 0 6 -25 3 -38 -5z"/>
<path d="M10945 1370 c3 -5 10 -10 16 -10 5 0 9 5 9 10 0 6 -7 10 -16 10 -8 0
-12 -4 -9 -10z"/>
<path d="M10303 1363 c-17 -6 -16 -38 1 -52 11 -9 15 -6 18 19 5 33 1 40 -19
33z"/>
<path d="M11055 1353 c11 -3 24 -9 30 -14 14 -14 25 -11 25 6 0 11 -10 15 -37
14 -22 -1 -29 -3 -18 -6z"/>
<path d="M10955 1341 c-3 -5 -1 -12 5 -16 5 -3 10 1 10 9 0 18 -6 21 -15 7z"/>
<path d="M11650 1330 c0 -13 7 -20 20 -20 23 0 26 10 8 28 -18 18 -28 15 -28
-8z"/>
<path d="M7250 1321 c0 -5 5 -13 10 -16 6 -3 10 -31 10 -61 0 -30 4 -53 8 -50
4 2 8 33 7 68 0 52 -3 63 -17 66 -10 2 -18 -1 -18 -7z"/>
<path d="M8048 1290 c2 -22 6 -40 8 -40 2 0 4 18 4 40 0 22 -3 40 -8 40 -4 0
-6 -18 -4 -40z"/>
<path d="M10060 1316 c0 -10 28 -54 48 -76 30 -33 52 -77 53 -109 1 -25 1 -24
10 5 5 17 16 37 24 44 16 14 20 40 6 40 -5 0 -11 -5 -13 -11 -5 -15 -68 22
-68 40 0 8 -13 27 -30 43 -16 15 -30 26 -30 24z"/>
<path d="M8710 1265 c0 -18 -7 -60 -15 -92 -8 -31 -15 -74 -15 -95 0 -20 -4
-40 -10 -43 -5 -3 -10 -22 -10 -41 0 -19 5 -34 10 -34 6 0 10 3 10 8 1 23 21
147 35 212 17 87 19 120 5 120 -5 0 -10 -16 -10 -35z"/>
<path d="M10180 1270 c0 -5 5 -10 11 -10 5 0 7 5 4 10 -3 6 -8 10 -11 10 -2 0
-4 -4 -4 -10z"/>
<path d="M10610 1241 c0 -6 6 -11 14 -11 10 0 17 -16 22 -47 7 -45 8 -46 16
-21 7 19 5 36 -4 55 -13 27 -48 45 -48 24z"/>
<path d="M10810 1206 c0 -14 5 -26 10 -26 6 0 10 9 10 19 0 11 -4 23 -10 26
-6 4 -10 -5 -10 -19z"/>
<path d="M11670 1215 c0 -26 24 -105 31 -105 13 0 20 18 10 24 -5 3 -12 26
-15 51 -7 41 -26 64 -26 30z"/>
<path d="M9081 1174 c0 -11 3 -14 6 -6 3 7 2 16 -1 19 -3 4 -6 -2 -5 -13z"/>
<path d="M10625 1171 c-3 -5 -1 -12 5 -16 5 -3 10 1 10 9 0 18 -6 21 -15 7z"/>
<path d="M10696 1158 c3 -13 11 -29 17 -36 12 -16 15 -101 3 -105 -16 -5 2
-37 22 -37 10 0 23 -5 30 -12 25 -25 12 -35 -42 -37 -44 -1 -55 2 -59 17 -4
13 -5 13 -6 2 -2 -30 -60 -45 -154 -40 -48 3 -87 2 -87 -2 0 -4 -10 -5 -22 -3
-12 3 -46 2 -74 -1 -47 -6 -53 -9 -58 -35 -7 -38 -26 -37 -26 0 0 29 -1 29
-62 33 -34 2 -74 -2 -91 -9 -16 -7 -62 -13 -103 -13 -59 0 -75 -3 -83 -17 -8
-14 -13 -15 -19 -6 -10 15 -142 6 -142 -10 0 -6 -4 -6 -12 0 -14 11 -352 8
-370 -3 -15 -9 -34 -11 -195 -19 -76 -3 -181 -11 -233 -17 -107 -12 -187 -18
-310 -24 -150 -8 -153 -10 -165 -134 -3 -36 -7 -84 -10 -108 -4 -50 4 -53 28
-12 20 32 24 35 46 21 12 -8 13 -14 2 -37 -8 -19 -9 -30 -1 -38 5 -5 10 -20
10 -33 0 -14 6 -23 15 -23 8 0 23 -4 33 -9 35 -19 75 -31 125 -38 20 -3 37 -8
37 -12 0 -4 18 -14 41 -21 45 -15 56 -27 41 -42 -8 -8 -28 -2 -71 20 -32 18
-69 32 -82 32 -13 0 -42 7 -64 15 -22 8 -55 14 -72 15 -18 0 -33 5 -33 10 0 6
-5 10 -11 10 -6 0 -9 -7 -5 -15 3 -8 -3 -19 -12 -25 -15 -8 -15 -11 -2 -19 12
-8 12 -13 1 -35 -18 -33 -35 -22 -28 20 7 43 -2 74 -20 74 -12 0 -13 -3 -4
-14 9 -11 9 -15 -1 -19 -10 -4 -10 -8 1 -15 11 -8 12 -14 4 -24 -12 -14 -14
-328 -3 -328 4 0 10 29 13 65 8 83 26 142 45 150 19 7 25 1 27 -32 1 -16 3
-34 3 -40 1 -7 13 -13 26 -13 35 0 40 -16 19 -53 -25 -42 -53 -48 -50 -11 1
15 -4 29 -10 31 -9 3 -13 -6 -13 -26 0 -17 5 -31 10 -31 6 0 10 -9 10 -20 0
-26 31 -26 48 0 7 11 19 20 27 20 8 0 15 7 15 15 0 8 5 15 10 15 6 0 10 -6 10
-14 0 -8 6 -16 13 -19 7 -2 8 -8 3 -13 -5 -5 -11 -4 -13 4 -7 19 -23 14 -23
-8 0 -18 7 -20 78 -20 73 1 79 2 116 35 39 34 39 35 51 142 16 149 60 243 116
243 16 0 29 -4 29 -10 0 -5 14 -23 30 -40 17 -17 30 -37 30 -45 0 -7 5 -17 10
-20 6 -3 10 -16 11 -28 1 -37 33 -81 65 -89 16 -3 47 -12 69 -19 22 -6 63 -13
90 -16 47 -4 51 -3 62 24 7 15 17 57 22 92 6 35 17 74 26 87 19 29 19 39 -1
58 -19 20 -28 63 -14 71 6 3 19 3 31 0 16 -5 18 -10 9 -20 -9 -11 -8 -19 2
-34 16 -22 45 -13 35 11 -3 8 -1 21 4 29 7 11 9 9 9 -8 0 -29 17 -38 25 -13 3
11 15 20 26 20 10 0 24 8 31 19 11 18 13 18 61 1 27 -10 54 -26 60 -35 8 -16
11 -14 23 14 9 22 26 38 54 49 22 9 40 23 40 30 0 17 10 15 27 -5 13 -17 14
-17 29 3 21 31 64 21 65 -15 2 -41 -2 -55 -17 -64 -8 -4 -14 -17 -14 -28 0
-15 -5 -18 -23 -14 -15 4 -28 1 -36 -9 -11 -13 -11 -16 3 -16 20 0 21 -29 2
-36 -8 -3 -16 -14 -19 -25 -7 -26 -37 -36 -49 -16 -14 26 -28 20 -28 -12 0
-17 -4 -33 -10 -36 -15 -9 -12 -60 5 -102 8 -19 15 -60 15 -90 0 -75 10 -83
111 -83 77 0 83 2 105 28 13 15 24 30 24 34 0 5 29 40 65 79 36 39 65 76 65
83 0 22 33 52 75 68 28 11 41 23 43 38 2 14 0 20 -7 16 -7 -4 -11 1 -11 14 0
26 18 17 30 -16 12 -30 31 -30 83 0 23 13 59 27 80 30 20 4 37 10 37 14 0 8
22 18 108 51 41 17 52 18 52 7 0 -8 6 -16 13 -19 8 -2 11 -22 10 -57 -2 -34 2
-57 10 -62 9 -5 9 -10 -2 -20 -11 -10 -14 -10 -18 0 -7 18 -23 15 -23 -6 0
-15 6 -17 34 -14 25 3 33 8 29 18 -6 17 9 18 25 2 10 -10 17 -10 32 0 10 6 27
9 37 5 17 -6 17 -6 1 10 -9 9 -30 17 -47 17 -17 0 -31 5 -31 10 0 6 5 10 10
10 19 0 10 18 -12 24 -21 5 -22 7 -7 22 14 13 23 14 60 4 166 -43 369 -117
369 -135 0 -7 -7 -26 -15 -41 -8 -16 -15 -39 -15 -52 0 -23 -45 -117 -67 -140
-7 -7 -13 -15 -13 -18 0 -2 105 -4 234 -4 l234 0 6 32 c4 18 11 101 16 183 5
83 16 267 26 410 9 143 17 283 18 310 l1 50 -75 0 c-55 0 -74 3 -72 13 1 6 -2
12 -7 12 -5 0 -12 10 -14 23 -3 16 -5 14 -6 -10 -1 -37 -4 -39 -53 -48 -33 -6
-37 -5 -41 17 -4 23 -4 23 -6 1 -1 -25 3 -24 -131 -27 -47 0 -90 4 -95 9 -6 6
-27 35 -47 66 -39 59 -68 81 -68 52 0 -9 8 -22 18 -29 14 -11 14 -13 2 -14 -8
0 -25 -22 -38 -48 l-22 -47 2 42 c1 23 -1 45 -5 49 -10 11 -9 54 2 54 11 0 3
39 -12 57 -7 10 -15 8 -34 -7 -14 -11 -32 -20 -39 -20 -26 0 -14 -16 22 -29
41 -15 50 -31 34 -60 -13 -26 -41 -27 -71 -3 -16 14 -20 24 -14 38 13 29 14
78 3 92 -6 6 -21 12 -35 12 -21 0 -23 -3 -17 -22z m263 -164 c6 -15 9 -29 6
-33 -8 -8 -36 29 -30 40 3 4 -1 10 -7 12 -9 4 -8 6 3 6 9 1 21 -11 28 -25z
m-154 -4 c-3 -5 -10 -10 -16 -10 -5 0 -9 5 -9 10 0 6 7 10 16 10 8 0 12 -4 9
-10z m-765 -130 c0 -5 -10 -10 -22 -10 -19 0 -20 2 -8 10 19 13 30 13 30 0z
m-235 -30 c3 -5 1 -10 -4 -10 -6 0 -11 5 -11 10 0 6 2 10 4 10 3 0 8 -4 11
-10z m562 -42 c-3 -8 -6 -5 -6 6 -1 11 2 17 5 13 3 -3 4 -12 1 -19z m188 -8
c3 -5 1 -10 -4 -10 -6 0 -11 5 -11 10 0 6 2 10 4 10 3 0 8 -4 11 -10z m-725
-7 c0 -5 -5 -15 -10 -23 -8 -12 -10 -11 -10 8 0 12 5 22 10 22 6 0 10 -3 10
-7z m130 -8 c0 -8 -4 -15 -10 -15 -5 0 -10 7 -10 15 0 8 5 15 10 15 6 0 10 -7
10 -15z m-320 -36 c0 -15 -15 -10 -33 11 -24 28 -21 33 8 14 14 -9 25 -20 25
-25z m-955 -9 c0 -7 -6 -15 -12 -17 -8 -3 -13 4 -13 17 0 13 5 20 13 18 6 -3
12 -11 12 -18z m1179 -2 c-4 -6 0 -14 7 -19 11 -7 9 -9 -7 -9 -27 0 -33 7 -27
30 3 11 11 16 19 13 8 -3 11 -10 8 -15z m139 10 c-6 -7 -13 -20 -16 -28 -3 -9
-6 -3 -6 13 -1 19 4 27 15 27 12 0 14 -4 7 -12z m-1457 -13 c-8 -8 -17 -15
-20 -15 -3 0 -6 7 -6 15 0 9 9 15 21 15 18 0 19 -2 5 -15z m1222 3 c7 -7 8
-17 1 -30 -15 -27 -29 -22 -29 12 0 32 9 37 28 18z m-538 -38 c0 -5 -4 -10
-10 -10 -5 0 -10 5 -10 10 0 6 5 10 10 10 6 0 10 -4 10 -10z m-630 -25 c7 -9
10 -18 7 -22 -8 -7 -37 15 -37 28 0 14 16 11 30 -6z m824 0 c-4 -8 -8 -15 -10
-15 -2 0 -4 7 -4 15 0 8 4 15 10 15 5 0 7 -7 4 -15z m611 -35 c8 0 15 -9 15
-20 0 -11 6 -20 14 -20 7 0 19 -7 26 -15 9 -11 22 -14 42 -10 38 9 36 -10 -2
-24 -40 -13 -77 1 -82 31 -2 13 -8 22 -14 21 -6 -1 -34 -5 -63 -9 l-53 -7 16
31 c12 23 21 29 36 25 17 -4 20 0 20 23 l1 29 15 -27 c8 -16 21 -28 29 -28z
m32 28 c-3 -8 -6 -5 -6 6 -1 11 2 17 5 13 3 -3 4 -12 1 -19z m-787 -13 c0 -8
-6 -15 -14 -15 -8 0 -16 7 -20 15 -4 10 1 15 14 15 11 0 20 -7 20 -15z m60
-69 c-25 -26 -33 -17 -19 23 10 29 12 30 25 14 11 -15 10 -21 -6 -37z m347 7
c-3 -10 -5 -2 -5 17 0 19 2 27 5 18 2 -10 2 -26 0 -35z m653 27 c0 -11 -4 -20
-10 -20 -5 0 -10 9 -10 20 0 11 5 20 10 20 6 0 10 -9 10 -20z m-880 -32 c0
-16 -3 -19 -11 -11 -6 6 -8 16 -5 22 11 17 16 13 16 -11z m-830 2 c0 -5 -4
-10 -10 -10 -5 0 -10 5 -10 10 0 6 5 10 10 10 6 0 10 -4 10 -10z m780 -5 c0
-8 -7 -15 -15 -15 -16 0 -20 12 -8 23 11 12 23 8 23 -8z m845 -15 c3 -5 1 -10
-4 -10 -6 0 -11 5 -11 10 0 6 2 10 4 10 3 0 8 -4 11 -10z m-65 -9 c0 -6 -4
-13 -10 -16 -5 -3 -10 1 -10 9 0 9 5 16 10 16 6 0 10 -4 10 -9z m-1427 -28
c10 -9 -13 -33 -32 -33 -17 0 -51 -33 -51 -50 0 -6 -9 -10 -20 -10 -31 0 -24
26 18 58 48 37 73 48 85 35z m604 -19 c-3 -3 -12 -4 -19 -1 -8 3 -5 6 6 6 11
1 17 -2 13 -5z m733 -99 c0 -9 -9 -15 -22 -15 -21 0 -21 0 -2 15 24 18 24 18
24 0z m170 -29 c0 -3 -4 -8 -10 -11 -5 -3 -10 -1 -10 4 0 6 5 11 10 11 6 0 10
-2 10 -4z m-1573 -177 c-8 -76 -18 -119 -28 -119 -5 0 -9 -9 -9 -19 0 -26 -16
-35 -24 -15 -10 27 -7 52 10 69 9 8 13 22 10 31 -3 8 -1 25 6 37 13 23 14 28
16 67 2 17 5 21 13 13 7 -7 9 -32 6 -64z"/>
<path d="M7664 1139 c-3 -6 -1 -16 5 -22 8 -8 11 -5 11 11 0 24 -5 28 -16 11z"/>
<path d="M8870 1131 c-15 -28 -13 -32 14 -25 16 4 25 1 29 -10 7 -18 27 -22
27 -6 0 10 -48 60 -56 60 -2 0 -8 -9 -14 -19z"/>
<path d="M10955 1140 c4 -6 11 -8 16 -5 14 9 11 15 -7 15 -8 0 -12 -5 -9 -10z"/>
<path d="M11070 1139 c0 -5 5 -7 10 -4 6 3 10 8 10 11 0 2 -4 4 -10 4 -5 0
-10 -5 -10 -11z"/>
<path d="M11820 1135 c0 -8 7 -15 15 -15 8 0 15 7 15 15 0 8 -7 15 -15 15 -8
0 -15 -7 -15 -15z"/>
<path d="M6572 1110 c0 -14 2 -19 5 -12 2 6 2 18 0 25 -3 6 -5 1 -5 -13z"/>
<path d="M9060 1095 c0 -8 -4 -15 -10 -15 -5 0 -10 -11 -10 -24 0 -14 5 -28
10 -31 6 -3 10 -16 10 -27 0 -12 3 -18 7 -15 9 10 10 127 1 127 -5 0 -8 -7 -8
-15z"/>
<path d="M9487 1083 c-4 -3 -7 -22 -7 -42 l1 -36 14 34 c8 18 15 37 15 42 0
11 -14 12 -23 2z"/>
<path d="M6582 1051 c-1 -16 2 -32 8 -36 6 -4 10 8 10 29 0 43 -15 48 -18 7z"/>
<path d="M10641 1014 c0 -11 3 -14 6 -6 3 7 2 16 -1 19 -3 4 -6 -2 -5 -13z"/>
<path d="M12370 1005 c1 -26 2 -28 11 -12 8 14 8 22 0 30 -8 8 -11 3 -11 -18z"/>
<path d="M8423 1004 c-15 -16 -17 -34 -4 -34 10 0 26 39 19 45 -1 2 -9 -3 -15
-11z"/>
<path d="M10132 965 c-11 -13 -10 -15 7 -15 11 0 22 -6 24 -12 3 -7 6 -1 6 15
1 30 -16 35 -37 12z"/>
<path d="M11570 945 c0 -15 -4 -44 -10 -64 -9 -33 -23 -264 -36 -596 -3 -72
-9 -143 -15 -159 -5 -16 -9 -51 -9 -77 l0 -49 100 0 c61 0 100 4 100 10 0 6
-11 28 -25 50 -19 30 -23 45 -16 63 5 13 5 30 1 38 -5 7 -9 44 -9 82 0 38 -4
74 -10 81 -18 21 -2 26 81 26 60 0 78 3 78 14 0 10 -18 15 -60 18 -79 6 -91
18 -92 96 0 38 -5 59 -11 55 -6 -4 -7 7 -3 30 6 30 3 38 -16 51 l-22 16 26 0
c30 0 47 18 29 30 -9 5 -8 10 4 20 18 15 20 36 3 43 -10 4 -10 6 0 6 7 1 12
15 12 37 0 27 -4 35 -14 31 -17 -7 -26 21 -15 48 4 11 8 39 8 61 1 36 -2 43
-23 48 -13 3 -31 9 -40 12 -12 5 -16 0 -16 -21z"/>
<path d="M9743 944 c9 -9 97 -10 97 -1 0 4 -23 7 -52 7 -28 0 -48 -3 -45 -6z"/>
<path d="M7680 929 c0 -5 17 -9 38 -9 31 0 46 -7 75 -35 20 -19 43 -35 52 -35
26 0 -13 46 -55 64 -44 18 -110 28 -110 15z"/>
<path d="M9975 932 c-2 -3 -2 -8 1 -13 5 -9 34 -1 34 10 0 8 -27 10 -35 3z"/>
<path d="M9510 915 c0 -16 9 -19 34 -9 25 9 19 24 -9 24 -16 0 -25 -6 -25 -15z"/>
<path d="M8653 895 c-3 -9 -3 -18 0 -21 9 -9 27 6 27 22 0 19 -19 18 -27 -1z"/>
<path d="M9465 890 c-3 -5 -15 -10 -26 -10 -10 0 -19 -4 -19 -10 0 -5 2 -10 4
-10 9 0 76 31 76 35 0 9 -29 5 -35 -5z"/>
<path d="M12120 878 c0 -19 2 -20 10 -8 13 19 13 30 0 30 -5 0 -10 -10 -10
-22z"/>
<path d="M12070 844 c0 -8 5 -12 10 -9 6 4 8 11 5 16 -9 14 -15 11 -15 -7z"/>
<path d="M7945 790 c-3 -5 -2 -10 4 -10 5 0 13 5 16 10 3 6 2 10 -4 10 -5 0
-13 -4 -16 -10z"/>
<path d="M7916 725 c-12 -28 -25 -45 -36 -45 -11 0 -21 -18 -33 -62 -10 -35
-22 -77 -27 -94 -13 -39 -13 -54 0 -54 6 0 10 10 10 23 0 13 3 27 8 31 4 4 7
11 8 14 4 48 33 116 62 148 17 18 40 84 30 84 -2 0 -12 -20 -22 -45z"/>
<path d="M7320 736 c0 -9 7 -16 16 -16 9 0 14 5 12 12 -6 18 -28 21 -28 4z"/>
<path d="M7170 710 c0 -5 9 -10 21 -10 11 0 17 5 14 10 -3 6 -13 10 -21 10 -8
0 -14 -4 -14 -10z"/>
<path d="M7360 695 c-6 -8 -7 -16 -2 -19 6 -3 13 -22 16 -41 4 -21 13 -35 21
-35 19 0 19 14 1 33 -15 15 -16 33 -3 53 10 17 -20 25 -33 9z"/>
<path d="M11918 623 c-10 -2 -18 -9 -18 -14 0 -14 26 -11 40 6 13 15 9 16 -22
8z"/>
<path d="M11788 588 c14 -18 60 -29 67 -17 3 4 -5 10 -17 14 -66 19 -64 19
-50 3z"/>
<path d="M6683 550 c3 -10 0 -21 -7 -24 -6 -2 -3 -5 7 -5 12 -1 17 7 17 24 0
14 -5 25 -11 25 -6 0 -9 -9 -6 -20z"/>
<path d="M28 523 c7 -3 16 -2 19 1 4 3 -2 6 -13 5 -11 0 -14 -3 -6 -6z"/>
<path d="M3691 263 c-1 -170 3 -263 9 -263 12 0 13 413 1 480 -6 28 -9 -51
-10 -217z"/>
<path d="M7460 490 c0 -5 5 -10 10 -10 6 0 10 5 10 10 0 6 -4 10 -10 10 -5 0
-10 -4 -10 -10z"/>
<path d="M22 470 c-12 -5 -22 -14 -22 -20 0 -16 26 -12 51 10 26 21 12 26 -29
10z"/>
<path d="M6739 448 c19 -17 37 -26 39 -20 5 17 -30 52 -53 52 -17 -1 -15 -5
14 -32z"/>
<path d="M7563 473 c9 -2 23 -2 30 0 6 3 -1 5 -18 5 -16 0 -22 -2 -12 -5z"/>
<path d="M8442 463 c2 -10 11 -19 21 -21 16 -3 17 -1 5 17 -16 25 -31 27 -26
4z"/>
<path d="M7910 436 c0 -9 -6 -16 -13 -16 -19 0 -41 -88 -26 -106 15 -18 33
-18 26 -1 -3 8 -1 20 4 28 14 22 11 -28 -3 -54 -12 -23 -15 -93 -5 -104 4 -3
7 -25 7 -47 1 -33 3 -37 11 -24 5 10 9 26 7 35 -2 12 3 18 17 18 11 0 23 4 27
10 4 5 10 7 13 3 4 -3 -6 -25 -21 -47 -15 -23 -24 -44 -21 -47 12 -12 46 22
52 53 6 33 25 47 25 18 0 -23 16 -18 34 10 32 49 14 73 -26 35 -31 -28 -38
-25 -39 18 -1 20 -3 29 -6 20 -2 -10 -8 -18 -13 -18 -5 0 -7 -7 -4 -15 4 -8 1
-15 -5 -15 -7 0 -14 7 -17 15 -4 8 -12 15 -20 15 -8 0 -14 4 -14 10 0 5 6 7
14 4 22 -8 34 25 31 84 -2 28 1 52 7 52 5 0 8 17 6 38 -2 30 -7 38 -25 40 -16
2 -23 -2 -23 -12z"/>
<path d="M7651 414 c0 -11 3 -14 6 -6 3 7 2 16 -1 19 -3 4 -6 -2 -5 -13z"/>
<path d="M8288 344 c-20 -38 -22 -54 -10 -54 10 0 38 78 31 84 -2 2 -12 -11
-21 -30z"/>
<path d="M6965 350 c-8 -13 9 -20 24 -11 10 6 9 10 -3 14 -8 3 -18 2 -21 -3z"/>
<path d="M11925 350 c-19 -7 -19 -7 2 -14 13 -4 30 -3 39 2 15 8 14 10 -3 14
-10 3 -27 2 -38 -2z"/>
<path d="M115 324 c9 -9 18 -14 21 -11 9 9 -6 27 -22 27 -13 0 -13 -2 1 -16z"/>
<path d="M3730 319 c0 -13 -3 -90 -6 -171 -6 -137 -5 -148 11 -148 16 0 17 12
11 167 -4 92 -9 169 -11 172 -3 2 -5 -7 -5 -20z"/>
<path d="M6901 324 c0 -11 3 -14 6 -6 3 7 2 16 -1 19 -3 4 -6 -2 -5 -13z"/>
<path d="M12440 315 c0 -8 2 -15 4 -15 2 0 6 7 10 15 3 8 1 15 -4 15 -6 0 -10
-7 -10 -15z"/>
<path d="M12560 321 c-11 -5 -14 -17 -10 -51 l5 -45 13 37 c16 45 13 68 -8 59z"/>
<path d="M7815 310 c-3 -5 -1 -10 4 -10 6 0 11 5 11 10 0 6 -2 10 -4 10 -3 0
-8 -4 -11 -10z"/>
<path d="M6688 303 c7 -3 16 -2 19 1 4 3 -2 6 -13 5 -11 0 -14 -3 -6 -6z"/>
<path d="M12353 303 c-34 -4 -44 -20 -18 -29 8 -3 26 4 41 15 15 12 23 20 18
19 -5 0 -24 -3 -41 -5z"/>
<path d="M6900 285 c0 -8 5 -15 10 -15 6 0 10 7 10 15 0 8 -4 15 -10 15 -5 0
-10 -7 -10 -15z"/>
<path d="M11940 278 c0 -10 -4 -18 -10 -18 -5 0 -10 -19 -10 -41 0 -43 -29
-139 -42 -139 -5 0 -8 -6 -8 -14 0 -7 -7 -19 -15 -26 -29 -24 -18 -40 30 -40
46 0 60 14 25 25 -24 8 -25 18 -5 35 13 10 15 9 15 -9 0 -12 4 -20 9 -16 5 3
12 -4 16 -15 3 -11 15 -20 26 -20 24 0 24 2 -1 42 -22 36 -26 53 -10 43 6 -3
10 -1 10 4 0 6 7 11 15 11 7 0 18 7 23 16 12 21 32 10 32 -17 0 -15 4 -18 15
-11 19 10 159 -5 163 -18 2 -6 10 -10 18 -10 11 0 14 21 14 105 0 77 3 105 13
106 11 0 -20 17 -35 18 -5 1 -8 -24 -8 -54 0 -30 -4 -55 -10 -55 -5 0 -10 5
-10 10 0 6 -24 10 -52 10 -45 1 -51 3 -36 13 11 9 14 18 8 27 -7 12 -15 11
-44 -5 -20 -11 -35 -26 -33 -34 1 -8 -4 -16 -10 -18 -9 -3 -13 6 -13 26 0 16
-4 33 -10 36 -5 3 -10 14 -10 24 0 13 -9 20 -30 23 -24 4 -30 1 -30 -14z"/>
<path d="M7996 273 c-6 -14 -5 -15 5 -6 7 7 10 15 7 18 -3 3 -9 -2 -12 -12z"/>
<path d="M10787 277 c-7 -18 19 -57 37 -57 8 0 19 -15 26 -32 8 -18 19 -40 27
-49 10 -12 11 -27 3 -69 -13 -68 -13 -70 5 -70 23 0 54 36 71 83 9 23 22 54
30 70 14 24 14 28 0 33 -19 7 -22 34 -4 34 6 0 3 7 -8 15 -10 8 -31 15 -46 15
-15 0 -29 4 -32 9 -3 5 -24 9 -47 9 -23 1 -45 6 -49 12 -5 8 -9 7 -13 -3z
m163 -181 c0 -2 -7 -6 -15 -10 -8 -3 -15 -1 -15 4 0 6 7 10 15 10 8 0 15 -2
15 -4z"/>
<path d="M12075 270 c3 -5 8 -10 11 -10 2 0 4 5 4 10 0 6 -5 10 -11 10 -5 0
-7 -4 -4 -10z"/>
<path d="M7720 255 c0 -8 5 -15 10 -15 6 0 10 7 10 15 0 8 -4 15 -10 15 -5 0
-10 -7 -10 -15z"/>
<path d="M10567 255 c-3 -11 -9 -38 -12 -60 -4 -22 -9 -49 -12 -59 -4 -15 -1
-18 16 -13 14 3 24 0 28 -9 9 -25 33 -16 34 14 1 15 0 32 -1 37 -2 6 -2 19 -2
30 1 11 -9 34 -22 50 -21 27 -24 27 -29 10z"/>
<path d="M5701 204 c0 -11 3 -14 6 -6 3 7 2 16 -1 19 -3 4 -6 -2 -5 -13z"/>
<path d="M9010 175 c0 -8 5 -15 10 -15 6 0 10 7 10 15 0 8 -4 15 -10 15 -5 0
-10 -7 -10 -15z"/>
<path d="M7252 149 c7 -37 67 -149 81 -149 22 0 -48 170 -74 179 -9 3 -10 -6
-7 -30z"/>
<path d="M7665 170 c3 -5 8 -10 11 -10 2 0 4 5 4 10 0 6 -5 10 -11 10 -5 0 -7
-4 -4 -10z"/>
<path d="M7600 131 c0 -18 12 -41 21 -41 15 0 10 37 -6 44 -8 3 -15 1 -15 -3z"/>
<path d="M9492 121 c-10 -6 -7 -10 12 -13 16 -3 25 -1 23 5 -5 15 -20 18 -35
8z"/>
<path d="M162 98 c2 -6 13 -17 25 -25 19 -13 20 -12 16 12 -4 17 -12 25 -25
25 -11 0 -18 -5 -16 -12z"/>
<path d="M9368 95 c-3 -3 -15 -8 -27 -10 -26 -5 -60 -43 -61 -67 0 -26 64 -24
93 3 12 11 34 23 49 26 14 3 28 14 31 24 4 15 0 19 -23 19 -16 0 -35 2 -42 5
-8 3 -17 3 -20 0z m12 -30 c0 -8 -4 -15 -10 -15 -5 0 -10 7 -10 15 0 8 5 15
10 15 6 0 10 -7 10 -15z"/>
<path d="M10520 80 c0 -5 5 -10 10 -10 6 0 10 5 10 10 0 6 -4 10 -10 10 -5 0
-10 -4 -10 -10z"/>
<path d="M8026 63 c-3 -10 -9 -24 -12 -30 -3 -7 -1 -13 4 -13 5 0 13 12 16 26
8 30 2 44 -8 17z"/>
<path d="M12270 59 c-9 -16 -9 -24 -1 -32 12 -12 31 6 31 30 0 22 -19 24 -30
2z"/>
<path d="M1660 56 c0 -2 7 -7 16 -10 8 -3 12 -2 9 4 -6 10 -25 14 -25 6z"/>
<path d="M2232 30 c0 -19 2 -27 5 -17 2 9 2 25 0 35 -3 9 -5 1 -5 -18z"/>
<path d="M1568 18 l-23 -18 45 1 c40 0 80 16 80 32 0 13 -81 1 -102 -15z"/>
<path d="M9230 30 c0 -5 -7 -10 -15 -10 -8 0 -15 -4 -15 -10 0 -5 14 -10 30
-10 23 0 30 4 30 20 0 11 -7 20 -15 20 -8 0 -15 -4 -15 -10z"/>
<path d="M6680 19 c0 -5 5 -7 10 -4 6 3 10 8 10 11 0 2 -4 4 -10 4 -5 0 -10
-5 -10 -11z"/>
<path d="M7596 21 c-4 -7 -5 -15 -2 -18 9 -9 19 4 14 18 -4 11 -6 11 -12 0z"/>
<path d="M7906 16 c3 -9 11 -16 16 -16 13 0 5 23 -10 28 -7 2 -10 -2 -6 -12z"/>
</g>
</svg>
